<svg data-v-70b83f88="" version="1.0" xmlns="http://www.w3.org/2000/svg" xmlns:xlink="http://www.w3.org/1999/xlink"
     width="100%" height="100%" viewBox="0 0 340.000000 250.000000" preserveAspectRatio="xMidYMid meet"
     color-interpolation-filters="sRGB" style="margin: auto;">
    <rect data-v-70b83f88="" x="0" y="0" width="100%" height="100%" fill="#ffffff" fill-opacity="1"
          class="background"></rect> <!---->
    <g data-v-70b83f88="" fill="#333333" class="icon-text-wrapper icon-svg-group iconsvg"
       transform="translate(87.79000091552734,60.05732727050781)">
        <g fill="#333" class="iconsvg-imagesvg icon_container" transform="translate(43.47032928466797,0)"
           mask="url(#c48a00e4-a62e-429a-98ec-97e103028605)">
            <rect fill="#333333" fill-opacity="0" stroke-width="2" x="0" y="0" width="77.47933884297521"
                  height="77.47933884297521" class="image-rect"></rect>
            <svg viewBox="0 0 60 60.00120002400048" x="0" y="0" width="77.47933884297521" height="77.47933884297521"
                 class="image-svg-svg bn" style="overflow: visible;">
                <g hollow-target="iconBnFill" mask="url(#629fcee1-16d8-4d56-92bb-4eecadd6f032)">
                    <g>
                        <svg viewBox="0.88 0 65.00001 65.00099" xmlns="http://www.w3.org/2000/svg"
                             style="overflow: visible;" width="60" height="60.00120002400048" x="0" y="0"
                             filtersec="colorsf2986235661" filter="url(#qjIyFOdtDzaCsW7aZY50O)">
                            <g transform="scale(1, 1) skewX(0)">
                                <path d="M33.38 60.445c-15.434 0-27.945-12.512-27.945-27.945 0-15.434 12.51-27.945 27.945-27.945 15.433 0 27.944 12.511 27.944 27.945 0 15.433-12.51 27.945-27.944 27.945M63.137 38.42c.392-1.981 2.743-3.82 2.743-5.92 0-2.098-2.35-3.94-2.743-5.92-.403-2.044 1.055-4.641.275-6.521-.79-1.914-3.668-2.712-4.807-4.412-1.147-1.714-.793-4.675-2.247-6.129-1.45-1.453-4.412-1.097-6.125-2.243-1.698-1.14-2.499-4.017-4.412-4.808-1.88-.78-4.478.679-6.521.276C37.319 2.35 35.478 0 33.38 0c-2.099 0-3.937 2.35-5.92 2.743-2.044.403-4.642-1.056-6.521-.278-1.914.793-2.712 3.67-4.413 4.81-1.713 1.146-4.674.79-6.128 2.243-1.45 1.454-1.097 4.415-2.244 6.129-1.138 1.7-4.017 2.498-4.807 4.412-.78 1.88.681 4.477.276 6.52C3.23 28.562.88 30.403.88 32.5c0 2.102 2.35 3.94 2.743 5.92.405 2.045-1.056 4.64-.276 6.522.79 1.91 3.669 2.712 4.807 4.412 1.147 1.716.793 4.675 2.244 6.128 1.454 1.45 4.415 1.097 6.128 2.244 1.698 1.139 2.499 4.017 4.413 4.81 1.88.78 4.477-.681 6.52-.278 1.984.392 3.822 2.743 5.92 2.743 2.099 0 3.94-2.35 5.92-2.743 2.044-.403 4.642 1.058 6.522.278 1.91-.793 2.711-3.671 4.412-4.807 1.713-1.147 4.675-.793 6.125-2.247 1.454-1.453 1.1-4.412 2.247-6.128 1.139-1.7 4.017-2.501 4.807-4.412.78-1.88-.678-4.477-.275-6.521"
                                      fill="#000" fill-rule="evenodd"></path>
                            </g>
                            <defs>
                                <filter id="qjIyFOdtDzaCsW7aZY50O">
                                    <feColorMatrix type="matrix"
                                                   values="0 0 0 0 0.19921875  0 0 0 0 0.19921875  0 0 0 0 0.19921875  0 0 0 1 0"></feColorMatrix>
                                </filter>
                            </defs>
                        </svg>
                    </g>
                    <g filter="url(#colors6215692472)">
                        <svg xmlns="http://www.w3.org/2000/svg" xmlns:xlink="http://www.w3.org/1999/xlink"
                             viewBox="0 0 81.50400000000002 55.440000000000005" width="33" height="33.00066" x="13.5"
                             y="13.50027001200024" class="image-svg-letter">
                            <path transform="translate(-1.4400000000000002 54.57600000000001)"
                                  d="M20.74 0.86C31.46 0.86 40.75-5.33 40.75-15.05C40.75-32.33 12.60-31.90 12.60-39.96C12.60-43.34 16.85-45.43 20.74-45.43C25.34-45.43 29.23-42.70 29.23-39.38L39.82-39.38C39.82-50.04 30.02-54.58 20.74-54.58C9.86-54.58 2.09-48.60 2.09-40.25C2.09-22.54 30.24-24.62 30.24-15.05C30.24-11.38 26.93-9.00 21.46-9.00C15.12-9.00 12.10-13.39 12.10-17.42L1.44-17.42C1.44-6.70 9.86 0.86 20.74 0.86ZM62.93 0.86C73.66 0.86 82.94-5.33 82.94-15.05C82.94-32.33 54.79-31.90 54.79-39.96C54.79-43.34 59.04-45.43 62.93-45.43C67.54-45.43 71.42-42.70 71.42-39.38L82.01-39.38C82.01-50.04 72.22-54.58 62.93-54.58C52.06-54.58 44.28-48.60 44.28-40.25C44.28-22.54 72.43-24.62 72.43-15.05C72.43-11.38 69.12-9.00 63.65-9.00C57.31-9.00 54.29-13.39 54.29-17.42L43.63-17.42C43.63-6.70 52.06 0.86 62.93 0.86Z"></path>
                        </svg>
                    </g>
                </g>
                <mask id="629fcee1-16d8-4d56-92bb-4eecadd6f032">
                    <g fill="white">
                        <svg viewBox="0.88 0 65.00001 65.00099" xmlns="http://www.w3.org/2000/svg"
                             style="overflow: visible;" width="60" height="60.00120002400048" x="0" y="0"
                             filtersec="colorsf2986235661">
                            <g transform="scale(1, 1) skewX(0)">
                                <path d="M33.38 60.445c-15.434 0-27.945-12.512-27.945-27.945 0-15.434 12.51-27.945 27.945-27.945 15.433 0 27.944 12.511 27.944 27.945 0 15.433-12.51 27.945-27.944 27.945M63.137 38.42c.392-1.981 2.743-3.82 2.743-5.92 0-2.098-2.35-3.94-2.743-5.92-.403-2.044 1.055-4.641.275-6.521-.79-1.914-3.668-2.712-4.807-4.412-1.147-1.714-.793-4.675-2.247-6.129-1.45-1.453-4.412-1.097-6.125-2.243-1.698-1.14-2.499-4.017-4.412-4.808-1.88-.78-4.478.679-6.521.276C37.319 2.35 35.478 0 33.38 0c-2.099 0-3.937 2.35-5.92 2.743-2.044.403-4.642-1.056-6.521-.278-1.914.793-2.712 3.67-4.413 4.81-1.713 1.146-4.674.79-6.128 2.243-1.45 1.454-1.097 4.415-2.244 6.129-1.138 1.7-4.017 2.498-4.807 4.412-.78 1.88.681 4.477.276 6.52C3.23 28.562.88 30.403.88 32.5c0 2.102 2.35 3.94 2.743 5.92.405 2.045-1.056 4.64-.276 6.522.79 1.91 3.669 2.712 4.807 4.412 1.147 1.716.793 4.675 2.244 6.128 1.454 1.45 4.415 1.097 6.128 2.244 1.698 1.139 2.499 4.017 4.413 4.81 1.88.78 4.477-.681 6.52-.278 1.984.392 3.822 2.743 5.92 2.743 2.099 0 3.94-2.35 5.92-2.743 2.044-.403 4.642 1.058 6.522.278 1.91-.793 2.711-3.671 4.412-4.807 1.713-1.147 4.675-.793 6.125-2.247 1.454-1.453 1.1-4.412 2.247-6.128 1.139-1.7 4.017-2.501 4.807-4.412.78-1.88-.678-4.477-.275-6.521"
                                      fill-rule="evenodd"></path>
                            </g>
                            <defs></defs>
                        </svg>
                    </g>
                    <g fill="black">
                        <svg xmlns="http://www.w3.org/2000/svg" xmlns:xlink="http://www.w3.org/1999/xlink"
                             viewBox="0 0 81.50400000000002 55.440000000000005" width="33" height="33.00066" x="13.5"
                             y="13.50027001200024" class="image-svg-letter">
                            <path transform="translate(-1.4400000000000002 54.57600000000001)"
                                  d="M20.74 0.86C31.46 0.86 40.75-5.33 40.75-15.05C40.75-32.33 12.60-31.90 12.60-39.96C12.60-43.34 16.85-45.43 20.74-45.43C25.34-45.43 29.23-42.70 29.23-39.38L39.82-39.38C39.82-50.04 30.02-54.58 20.74-54.58C9.86-54.58 2.09-48.60 2.09-40.25C2.09-22.54 30.24-24.62 30.24-15.05C30.24-11.38 26.93-9.00 21.46-9.00C15.12-9.00 12.10-13.39 12.10-17.42L1.44-17.42C1.44-6.70 9.86 0.86 20.74 0.86ZM62.93 0.86C73.66 0.86 82.94-5.33 82.94-15.05C82.94-32.33 54.79-31.90 54.79-39.96C54.79-43.34 59.04-45.43 62.93-45.43C67.54-45.43 71.42-42.70 71.42-39.38L82.01-39.38C82.01-50.04 72.22-54.58 62.93-54.58C52.06-54.58 44.28-48.60 44.28-40.25C44.28-22.54 72.43-24.62 72.43-15.05C72.43-11.38 69.12-9.00 63.65-9.00C57.31-9.00 54.29-13.39 54.29-17.42L43.63-17.42C43.63-6.70 52.06 0.86 62.93 0.86Z"></path>
                        </svg>
                    </g>
                </mask>
            </svg>
            <defs>
                <filter id="colors6215692472">
                    <feColorMatrix type="matrix"
                                   values="0 0 0 0 0.19921875  0 0 0 0 0.19921875  0 0 0 0 0.19921875  0 0 0 1 0"
                                   class="icon-fecolormatrix"></feColorMatrix>
                </filter>
                <filter id="colorsf2986235661">
                    <feColorMatrix type="matrix"
                                   values="0 0 0 0 0.99609375  0 0 0 0 0.99609375  0 0 0 0 0.99609375  0 0 0 1 0"
                                   class="icon-fecolormatrix"></feColorMatrix>
                </filter>
                <filter id="colorsb8439379983">
                    <feColorMatrix type="matrix" values="0 0 0 0 0  0 0 0 0 0  0 0 0 0 0  0 0 0 1 0"
                                   class="icon-fecolormatrix"></feColorMatrix>
                </filter>
            </defs>
            <rect v-gra="id" width="89.47933959960938" height="89.47933959960938" transform="translate(-6, -6)"
                  style="pointer-events:none;" fill="url(#bb2Bh11JQOTXz6F--UTbU)"></rect>
        </g>
        <g transform="translate(0,84.47933959960938)">
            <g data-gra="path-name" fill-rule="" class="tp-name iconsvg-namesvg" transform="translate(0,0)">
                <g transform="scale(1)">
                    <g>
                        <path d="M7.34 0.42Q5.6 0.42 3.91 0.1 2.21-0.22 1.12-0.76L1.12-0.76 1.12-3.81Q2.52-3.14 4.06-2.8 5.6-2.46 7.08-2.46L7.08-2.46Q8.96-2.46 9.94-3.16 10.92-3.86 10.92-5.1L10.92-5.1Q10.92-5.96 10.47-6.54 10.02-7.11 9.16-7.55 8.29-7.98 6.5-8.68L6.5-8.68Q3.75-9.8 2.52-11.17 1.29-12.54 1.29-14.59L1.29-14.59Q1.29-16.18 2.16-17.42 3.02-18.65 4.59-19.32 6.16-19.99 8.2-19.99L8.2-19.99Q9.88-19.99 11.19-19.73 12.49-19.46 13.75-18.9L13.75-18.9 13.75-15.93Q11.31-17.11 8.82-17.11L8.82-17.11Q7.03-17.11 6.05-16.45 5.07-15.79 5.07-14.59L5.07-14.59Q5.07-13.72 5.52-13.17 5.96-12.63 6.71-12.25 7.45-11.87 9.38-11.06L9.38-11.06Q11.34-10.25 12.47-9.46 13.61-8.68 14.18-7.63 14.76-6.58 14.76-5.07L14.76-5.07Q14.76-2.46 12.88-1.02 11 0.42 7.34 0.42L7.34 0.42ZM17.56 0L17.56-19.57 21.03-19.57 27.58-5.24 34.13-19.57 37.6-19.57 37.6 0 34.24 0 34.24-12.71 28.42 0 26.74 0 20.92-12.71 20.92 0 17.56 0ZM56.7 0.42Q54.96 0.42 53.27 0.1 51.58-0.22 50.48-0.76L50.48-0.76 50.48-3.81Q51.88-3.14 53.42-2.8 54.96-2.46 56.45-2.46L56.45-2.46Q58.32-2.46 59.3-3.16 60.28-3.86 60.28-5.1L60.28-5.1Q60.28-5.96 59.84-6.54 59.39-7.11 58.52-7.55 57.65-7.98 55.86-8.68L55.86-8.68Q53.12-9.8 51.88-11.17 50.65-12.54 50.65-14.59L50.65-14.59Q50.65-16.18 51.52-17.42 52.39-18.65 53.96-19.32 55.52-19.99 57.57-19.99L57.57-19.99Q59.25-19.99 60.55-19.73 61.85-19.46 63.11-18.9L63.11-18.9 63.11-15.93Q60.68-17.11 58.18-17.11L58.18-17.11Q56.39-17.11 55.41-16.45 54.43-15.79 54.43-14.59L54.43-14.59Q54.43-13.72 54.88-13.17 55.33-12.63 56.07-12.25 56.81-11.87 58.74-11.06L58.74-11.06Q60.7-10.25 61.84-9.46 62.97-8.68 63.55-7.63 64.12-6.58 64.12-5.07L64.12-5.07Q64.12-2.46 62.24-1.02 60.37 0.42 56.7 0.42L56.7 0.42ZM73.81 0.42Q71.46 0.42 69.68-0.43 67.9-1.29 66.92-2.9 65.94-4.51 65.94-6.72L65.94-6.72Q65.94-8.88 66.91-10.49 67.87-12.1 69.66-12.98 71.46-13.86 73.81-13.86L73.81-13.86Q76.16-13.86 77.94-12.98 79.72-12.1 80.7-10.49 81.68-8.88 81.68-6.72L81.68-6.72Q81.68-4.51 80.7-2.9 79.72-1.29 77.94-0.43 76.16 0.42 73.81 0.42L73.81 0.42ZM73.81-2.35Q75.74-2.35 76.89-3.57 78.04-4.79 78.04-6.72L78.04-6.72Q78.04-8.76 76.9-9.93 75.77-11.09 73.81-11.09L73.81-11.09Q71.85-11.09 70.71-9.93 69.58-8.76 69.58-6.72L69.58-6.72Q69.58-4.79 70.73-3.57 71.88-2.35 73.81-2.35L73.81-2.35ZM84.36 0L84.36-10.75 82.38-10.75 82.38-13.44 84.36-13.44 84.36-15.76Q84.36-18.23 85.82-19.53 87.28-20.83 89.66-20.83L89.66-20.83Q91-20.83 92.01-20.44L92.01-20.44 92.01-17.58Q91.25-17.92 90.36-17.92L90.36-17.92Q89.1-17.92 88.49-17.36 87.89-16.8 87.89-15.51L87.89-15.51 87.89-13.44 91.17-13.44 91.17-10.75 87.89-10.75 87.89 0 84.36 0ZM98.11 0.42Q95.9 0.42 94.75-0.81 93.6-2.04 93.6-4.28L93.6-4.28 93.6-10.75 91.59-10.75 91.59-13.44 93.6-13.44 93.6-17.47 97.13-17.47 97.13-13.44 100.35-13.44 100.35-10.75 97.13-10.75 97.13-4.73Q97.13-3.44 97.61-2.9 98.08-2.35 99.34-2.35L99.34-2.35Q100.21-2.35 101.05-2.74L101.05-2.74 101.05-0.06Q99.85 0.42 98.11 0.42L98.11 0.42ZM106.71 0L102.31-13.44 105.84-13.44 108.58-4.34 111.27-13.44 114.35-13.44 117.04-4.34 119.78-13.44 123.31-13.44 118.92 0 115.67 0 112.81-9.13 109.96 0 106.71 0ZM129.5 0.42Q127.09 0.42 125.55-0.85 124.01-2.13 124.01-4.28L124.01-4.28Q124.01-6.52 125.47-7.78 126.92-9.04 129.56-9.04L129.56-9.04Q132.1-9.04 133.95-8.01L133.95-8.01 133.95-8.37Q133.95-9.8 133.07-10.44 132.19-11.09 130.23-11.09L130.23-11.09Q129-11.09 127.79-10.85 126.59-10.61 125.66-10.19L125.66-10.19 125.66-12.96Q126.5-13.36 127.92-13.61 129.33-13.86 130.65-13.86L130.65-13.86Q134.15-13.86 135.83-12.36 137.51-10.86 137.51-8.2L137.51-8.2 137.51 0 134.18 0 134.18-1.32Q133.31-0.48 132.2-0.03 131.1 0.42 129.5 0.42L129.5 0.42ZM130.37-2.16Q131.54-2.16 132.5-2.62 133.45-3.08 133.95-3.89L133.95-3.89 133.95-5.38Q132.41-6.47 130.42-6.47L130.42-6.47Q127.6-6.47 127.6-4.28L127.6-4.28Q127.6-3.22 128.31-2.69 129.02-2.16 130.37-2.16L130.37-2.16ZM140.73 0L140.73-13.44 144.14-13.44 144.14-11.28Q144.96-12.38 146.45-12.91 147.95-13.44 149.88-13.44L149.88-13.44 149.88-10.75Q147.84-10.75 146.34-10.12 144.84-9.49 144.26-8.15L144.26-8.15 144.26 0 140.73 0ZM158.84 0.42Q155.09 0.42 152.91-1.46 150.72-3.33 150.72-6.69L150.72-6.69Q150.72-10 152.66-11.93 154.59-13.86 158.17-13.86L158.17-13.86Q160.52-13.86 162.19-12.96 163.86-12.07 164.7-10.51 165.54-8.96 165.54-6.97L165.54-6.97 165.54-5.35 154.08-5.35Q154.45-2.35 159.29-2.35L159.29-2.35Q160.58-2.35 161.92-2.58 163.27-2.8 164.28-3.19L164.28-3.19 164.28-0.48Q163.32-0.08 161.83 0.17 160.33 0.42 158.84 0.42L158.84 0.42ZM154.08-7.76L162.2-7.76Q162.15-9.35 161.07-10.22 159.99-11.09 158.12-11.09L158.12-11.09Q156.27-11.09 155.2-10.19 154.14-9.3 154.08-7.76L154.08-7.76Z"
                              transform="translate(-1.1200000047683716, 20.829999923706055)"></path>
                    </g> <!----> <!----> <!----> <!----> <!----> <!----> <!---->
                </g>
            </g>
            <g data-gra="path-slogan" fill-rule="" class="tp-slogan iconsvg-slogansvg" fill="#333333"
               transform="translate(5,37.25)">
                <rect x="0" height="1" y="3.580000400543213" width="24.485000610351562"></rect>
                <rect height="1" y="3.580000400543213" width="24.485000610351562" x="129.93499755859375"></rect>
                <g transform="translate(27.485000610351562,0)">
                    <g transform="scale(1)">
                        <path d="M1.08 0L1.08-7.87L2.08-7.87L2.08 0L1.08 0ZM6.87 0L6.87-7.03L4.49-7.03L4.49-7.87L10.25-7.87L10.25-7.03L7.88-7.03L7.88 0L6.87 0ZM16.09 0L16.09-7.87L18.06-7.87Q19.88-7.87 20.83-6.86Q21.78-5.86 21.78-3.97L21.78-3.97Q21.78-3.04 21.54-2.30Q21.30-1.56 20.83-1.05Q20.36-0.54 19.68-0.27Q19.00 0 18.11 0L18.11 0L16.09 0ZM17.09-0.82L17.99-0.82Q19.37-0.82 20.06-1.64Q20.75-2.47 20.75-3.97L20.75-3.97Q20.75-5.47 20.06-6.26Q19.37-7.06 17.99-7.06L17.99-7.06L17.09-7.06L17.09-0.82ZM24.47 0L24.47-7.87L29.01-7.87L29.01-7.03L25.47-7.03L25.47-4.56L28.46-4.56L28.46-3.71L25.47-3.71L25.47-0.85L29.13-0.85L29.13 0L24.47 0ZM33.24 0L30.72-7.87L31.78-7.87L33.04-3.62Q33.26-2.92 33.42-2.32Q33.58-1.72 33.81-1.02L33.81-1.02L33.86-1.02Q34.08-1.72 34.24-2.32Q34.41-2.92 34.62-3.62L34.62-3.62L35.88-7.87L36.90-7.87L34.40 0L33.24 0ZM38.98 0L38.98-7.87L43.51-7.87L43.51-7.03L39.97-7.03L39.97-4.56L42.96-4.56L42.96-3.71L39.97-3.71L39.97-0.85L43.63-0.85L43.63 0L38.98 0ZM46.30 0L46.30-7.87L47.30-7.87L47.30-0.85L50.74-0.85L50.74 0L46.30 0ZM55.72 0.14L55.72 0.14Q54.98 0.14 54.36-0.14Q53.74-0.43 53.30-0.97Q52.86-1.50 52.61-2.26Q52.36-3.02 52.36-3.97L52.36-3.97Q52.36-4.92 52.61-5.67Q52.86-6.42 53.30-6.94Q53.74-7.46 54.36-7.74Q54.98-8.02 55.72-8.02L55.72-8.02Q56.47-8.02 57.09-7.73Q57.70-7.45 58.15-6.93Q58.60-6.41 58.85-5.66Q59.10-4.91 59.10-3.97L59.10-3.97Q59.10-3.02 58.85-2.26Q58.60-1.50 58.15-0.97Q57.70-0.43 57.09-0.14Q56.47 0.14 55.72 0.14ZM55.72-0.73L55.72-0.73Q56.25-0.73 56.68-0.96Q57.10-1.19 57.41-1.61Q57.72-2.04 57.88-2.63Q58.05-3.23 58.05-3.97L58.05-3.97Q58.05-4.70 57.88-5.29Q57.72-5.88 57.41-6.29Q57.10-6.70 56.68-6.92Q56.25-7.14 55.72-7.14L55.72-7.14Q55.20-7.14 54.77-6.92Q54.34-6.70 54.04-6.29Q53.73-5.88 53.56-5.29Q53.40-4.70 53.40-3.97L53.40-3.97Q53.40-3.23 53.56-2.63Q53.73-2.04 54.04-1.61Q54.34-1.19 54.77-0.96Q55.20-0.73 55.72-0.73ZM61.79 0L61.79-7.87L64.20-7.87Q64.85-7.87 65.39-7.75Q65.93-7.63 66.31-7.36Q66.68-7.09 66.89-6.65Q67.10-6.20 67.10-5.56L67.10-5.56Q67.10-4.93 66.89-4.48Q66.68-4.02 66.30-3.72Q65.92-3.42 65.38-3.27Q64.85-3.12 64.20-3.12L64.20-3.12L62.78-3.12L62.78 0L61.79 0ZM62.78-3.94L64.08-3.94Q65.11-3.94 65.61-4.33Q66.11-4.72 66.11-5.56L66.11-5.56Q66.11-6.41 65.60-6.74Q65.10-7.07 64.08-7.07L64.08-7.07L62.78-7.07L62.78-3.94ZM69.70 0L69.70-7.87L70.88-7.87L72.40-3.65L72.98-2.04L73.02-2.04L73.58-3.65L75.09-7.87L76.26-7.87L76.26 0L75.32 0L75.32-4.33Q75.32-4.86 75.36-5.50Q75.40-6.13 75.45-6.66L75.45-6.66L75.40-6.66L74.76-4.91L73.25-0.79L72.69-0.79L71.16-4.91L70.54-6.66L70.49-6.66Q70.53-6.13 70.58-5.50Q70.62-4.86 70.62-4.33L70.62-4.33L70.62 0L69.70 0ZM79.42 0L79.42-7.87L83.96-7.87L83.96-7.03L80.42-7.03L80.42-4.56L83.41-4.56L83.41-3.71L80.42-3.71L80.42-0.85L84.08-0.85L84.08 0L79.42 0ZM86.75 0L86.75-7.87L87.78-7.87L90.62-2.93L91.48-1.30L91.52-1.30Q91.49-1.90 91.45-2.54Q91.40-3.18 91.40-3.80L91.40-3.80L91.40-7.87L92.35-7.87L92.35 0L91.32 0L88.46-4.96L87.61-6.58L87.56-6.58Q87.61-5.98 87.65-5.36Q87.70-4.74 87.70-4.12L87.70-4.12L87.70 0L86.75 0ZM97.14 0L97.14-7.03L94.77-7.03L94.77-7.87L100.53-7.87L100.53-7.03L98.15-7.03L98.15 0L97.14 0Z"
                              transform="translate(-1.08, 8.016)"></path>
                    </g>
                </g>
            </g>
        </g>
    </g>
    <defs v-gra="od"></defs>
    <defs v-gra="id">
        <filter id="0004d560-5195-432e-9b09-465aeba9cd80" filterUnits="userSpaceOnUse">
            <feColorMatrix type="matrix"
                           values="0 0 0 0 0.99609375  0 0 0 0 0.99609375  0 0 0 0 0.99609375  0 0 0 1 0"></feColorMatrix>
        </filter>
        <linearGradient x1="0" y1="1" x2="0" y2="0" id="bb2Bh11JQOTXz6F--UTbU">
            <stop offset="0%" stop-color="#ff0844"></stop>
            <stop offset="100%" stop-color="#ffb199"></stop>
        </linearGradient>
        <filter id="42443b3f1de60f6b6fd3b6a9844b4764" filterUnits="userSpaceOnUse">
            <feColorMatrix type="matrix"
                           values="0 0 0 0 0.99609375  0 0 0 0 0.99609375  0 0 0 0 0.99609375  0 0 0 1 0"></feColorMatrix>
        </filter>
    </defs>
    <mask v-gra="im" id="c48a00e4-a62e-429a-98ec-97e103028605">
        <g fill="#333" class="iconsvg-imagesvg icon_container" filter="url(#0004d560-5195-432e-9b09-465aeba9cd80)">
            <rect fill="#333333" fill-opacity="0" stroke-width="2" x="0" y="0" width="77.47933884297521"
                  height="77.47933884297521" class="image-rect"></rect>
            <svg viewBox="0 0 60 60.00120002400048" x="0" y="0" width="77.47933884297521" height="77.47933884297521"
                 class="image-svg-svg bn" style="overflow: visible;">
                <g hollow-target="iconBnFill" mask="url(#629fcee1-16d8-4d56-92bb-4eecadd6f032)">
                    <g>
                        <svg viewBox="0.88 0 65.00001 65.00099" xmlns="http://www.w3.org/2000/svg"
                             style="overflow: visible;" width="60" height="60.00120002400048" x="0" y="0"
                             filtersec="colorsf2986235661">
                            <g transform="scale(1, 1) skewX(0)">
                                <path d="M33.38 60.445c-15.434 0-27.945-12.512-27.945-27.945 0-15.434 12.51-27.945 27.945-27.945 15.433 0 27.944 12.511 27.944 27.945 0 15.433-12.51 27.945-27.944 27.945M63.137 38.42c.392-1.981 2.743-3.82 2.743-5.92 0-2.098-2.35-3.94-2.743-5.92-.403-2.044 1.055-4.641.275-6.521-.79-1.914-3.668-2.712-4.807-4.412-1.147-1.714-.793-4.675-2.247-6.129-1.45-1.453-4.412-1.097-6.125-2.243-1.698-1.14-2.499-4.017-4.412-4.808-1.88-.78-4.478.679-6.521.276C37.319 2.35 35.478 0 33.38 0c-2.099 0-3.937 2.35-5.92 2.743-2.044.403-4.642-1.056-6.521-.278-1.914.793-2.712 3.67-4.413 4.81-1.713 1.146-4.674.79-6.128 2.243-1.45 1.454-1.097 4.415-2.244 6.129-1.138 1.7-4.017 2.498-4.807 4.412-.78 1.88.681 4.477.276 6.52C3.23 28.562.88 30.403.88 32.5c0 2.102 2.35 3.94 2.743 5.92.405 2.045-1.056 4.64-.276 6.522.79 1.91 3.669 2.712 4.807 4.412 1.147 1.716.793 4.675 2.244 6.128 1.454 1.45 4.415 1.097 6.128 2.244 1.698 1.139 2.499 4.017 4.413 4.81 1.88.78 4.477-.681 6.52-.278 1.984.392 3.822 2.743 5.92 2.743 2.099 0 3.94-2.35 5.92-2.743 2.044-.403 4.642 1.058 6.522.278 1.91-.793 2.711-3.671 4.412-4.807 1.713-1.147 4.675-.793 6.125-2.247 1.454-1.453 1.1-4.412 2.247-6.128 1.139-1.7 4.017-2.501 4.807-4.412.78-1.88-.678-4.477-.275-6.521"
                                      fill="#000" fill-rule="evenodd"></path>
                            </g>
                            <defs>
                                <filter id="qjIyFOdtDzaCsW7aZY50O">
                                    <feColorMatrix type="matrix"
                                                   values="0 0 0 0 0.19921875  0 0 0 0 0.19921875  0 0 0 0 0.19921875  0 0 0 1 0"></feColorMatrix>
                                </filter>
                            </defs>
                        </svg>
                    </g>
                    <g>
                        <svg xmlns="http://www.w3.org/2000/svg" xmlns:xlink="http://www.w3.org/1999/xlink"
                             viewBox="0 0 81.50400000000002 55.440000000000005" width="33" height="33.00066" x="13.5"
                             y="13.50027001200024" class="image-svg-letter">
                            <path transform="translate(-1.4400000000000002 54.57600000000001)"
                                  d="M20.74 0.86C31.46 0.86 40.75-5.33 40.75-15.05C40.75-32.33 12.60-31.90 12.60-39.96C12.60-43.34 16.85-45.43 20.74-45.43C25.34-45.43 29.23-42.70 29.23-39.38L39.82-39.38C39.82-50.04 30.02-54.58 20.74-54.58C9.86-54.58 2.09-48.60 2.09-40.25C2.09-22.54 30.24-24.62 30.24-15.05C30.24-11.38 26.93-9.00 21.46-9.00C15.12-9.00 12.10-13.39 12.10-17.42L1.44-17.42C1.44-6.70 9.86 0.86 20.74 0.86ZM62.93 0.86C73.66 0.86 82.94-5.33 82.94-15.05C82.94-32.33 54.79-31.90 54.79-39.96C54.79-43.34 59.04-45.43 62.93-45.43C67.54-45.43 71.42-42.70 71.42-39.38L82.01-39.38C82.01-50.04 72.22-54.58 62.93-54.58C52.06-54.58 44.28-48.60 44.28-40.25C44.28-22.54 72.43-24.62 72.43-15.05C72.43-11.38 69.12-9.00 63.65-9.00C57.31-9.00 54.29-13.39 54.29-17.42L43.63-17.42C43.63-6.70 52.06 0.86 62.93 0.86Z"></path>
                        </svg>
                    </g>
                </g>
                <mask id="629fcee1-16d8-4d56-92bb-4eecadd6f032">
                    <g fill="white">
                        <svg viewBox="0.88 0 65.00001 65.00099" xmlns="http://www.w3.org/2000/svg"
                             style="overflow: visible;" width="60" height="60.00120002400048" x="0" y="0"
                             filtersec="colorsf2986235661">
                            <g transform="scale(1, 1) skewX(0)">
                                <path d="M33.38 60.445c-15.434 0-27.945-12.512-27.945-27.945 0-15.434 12.51-27.945 27.945-27.945 15.433 0 27.944 12.511 27.944 27.945 0 15.433-12.51 27.945-27.944 27.945M63.137 38.42c.392-1.981 2.743-3.82 2.743-5.92 0-2.098-2.35-3.94-2.743-5.92-.403-2.044 1.055-4.641.275-6.521-.79-1.914-3.668-2.712-4.807-4.412-1.147-1.714-.793-4.675-2.247-6.129-1.45-1.453-4.412-1.097-6.125-2.243-1.698-1.14-2.499-4.017-4.412-4.808-1.88-.78-4.478.679-6.521.276C37.319 2.35 35.478 0 33.38 0c-2.099 0-3.937 2.35-5.92 2.743-2.044.403-4.642-1.056-6.521-.278-1.914.793-2.712 3.67-4.413 4.81-1.713 1.146-4.674.79-6.128 2.243-1.45 1.454-1.097 4.415-2.244 6.129-1.138 1.7-4.017 2.498-4.807 4.412-.78 1.88.681 4.477.276 6.52C3.23 28.562.88 30.403.88 32.5c0 2.102 2.35 3.94 2.743 5.92.405 2.045-1.056 4.64-.276 6.522.79 1.91 3.669 2.712 4.807 4.412 1.147 1.716.793 4.675 2.244 6.128 1.454 1.45 4.415 1.097 6.128 2.244 1.698 1.139 2.499 4.017 4.413 4.81 1.88.78 4.477-.681 6.52-.278 1.984.392 3.822 2.743 5.92 2.743 2.099 0 3.94-2.35 5.92-2.743 2.044-.403 4.642 1.058 6.522.278 1.91-.793 2.711-3.671 4.412-4.807 1.713-1.147 4.675-.793 6.125-2.247 1.454-1.453 1.1-4.412 2.247-6.128 1.139-1.7 4.017-2.501 4.807-4.412.78-1.88-.678-4.477-.275-6.521"
                                      fill-rule="evenodd"></path>
                            </g>
                            <defs></defs>
                        </svg>
                    </g>
                    <g fill="black">
                        <svg xmlns="http://www.w3.org/2000/svg" xmlns:xlink="http://www.w3.org/1999/xlink"
                             viewBox="0 0 81.50400000000002 55.440000000000005" width="33" height="33.00066" x="13.5"
                             y="13.50027001200024" class="image-svg-letter">
                            <path transform="translate(-1.4400000000000002 54.57600000000001)"
                                  d="M20.74 0.86C31.46 0.86 40.75-5.33 40.75-15.05C40.75-32.33 12.60-31.90 12.60-39.96C12.60-43.34 16.85-45.43 20.74-45.43C25.34-45.43 29.23-42.70 29.23-39.38L39.82-39.38C39.82-50.04 30.02-54.58 20.74-54.58C9.86-54.58 2.09-48.60 2.09-40.25C2.09-22.54 30.24-24.62 30.24-15.05C30.24-11.38 26.93-9.00 21.46-9.00C15.12-9.00 12.10-13.39 12.10-17.42L1.44-17.42C1.44-6.70 9.86 0.86 20.74 0.86ZM62.93 0.86C73.66 0.86 82.94-5.33 82.94-15.05C82.94-32.33 54.79-31.90 54.79-39.96C54.79-43.34 59.04-45.43 62.93-45.43C67.54-45.43 71.42-42.70 71.42-39.38L82.01-39.38C82.01-50.04 72.22-54.58 62.93-54.58C52.06-54.58 44.28-48.60 44.28-40.25C44.28-22.54 72.43-24.62 72.43-15.05C72.43-11.38 69.12-9.00 63.65-9.00C57.31-9.00 54.29-13.39 54.29-17.42L43.63-17.42C43.63-6.70 52.06 0.86 62.93 0.86Z"></path>
                        </svg>
                    </g>
                </mask>
            </svg>
            <defs>
                <filter id="colors6215692472">
                    <feColorMatrix type="matrix"
                                   values="0 0 0 0 0.19921875  0 0 0 0 0.19921875  0 0 0 0 0.19921875  0 0 0 1 0"
                                   class="icon-fecolormatrix"></feColorMatrix>
                </filter>
                <filter id="colorsf2986235661">
                    <feColorMatrix type="matrix"
                                   values="0 0 0 0 0.99609375  0 0 0 0 0.99609375  0 0 0 0 0.99609375  0 0 0 1 0"
                                   class="icon-fecolormatrix"></feColorMatrix>
                </filter>
                <filter id="colorsb8439379983">
                    <feColorMatrix type="matrix" values="0 0 0 0 0  0 0 0 0 0  0 0 0 0 0  0 0 0 1 0"
                                   class="icon-fecolormatrix"></feColorMatrix>
                </filter>
            </defs>
        </g>
    </mask>
</svg>
